<?xml version="1.0" encoding="utf-8"?>
<!-- Generator: Adobe Illustrator 21.0.2, SVG Export Plug-In . SVG Version: 6.00 Build 0)  -->
<svg version="1.1" id="Ebene_1" xmlns="http://www.w3.org/2000/svg" xmlns:xlink="http://www.w3.org/1999/xlink" x="0px" y="0px"
	 viewBox="0 0 323 150" style="enable-background:new 0 0 323 150;" xml:space="preserve">
<style type="text/css">
	.st0{fill:#1D1D1B;}
</style>
<g>
	<path class="st0" d="M7.9,62.6V7h25c10.3,0,16.5,6.9,16.5,17.2c0,10.4-6.2,17.2-16.5,17.2H18.4v21.2H7.9z M18.4,32.4H32
		c4.1,0,6.5-2.2,6.5-6.3v-3.7c0-4.1-2.5-6.2-6.5-6.2H18.4V32.4z"/>
	<path class="st0" d="M83.1,55.7h-0.4c-1.4,4.1-4.8,7.9-11.6,7.9c-8.5,0-13.3-5.9-13.3-16.3V21H68v25.3c0,5.7,2.2,8.8,7,8.8
		c4.1,0,8.1-2.2,8.1-6.6V21h10.2v41.6H83.1V55.7z"/>
	<path class="st0" d="M104.6,62.6V21h10.2V28h0.4c1.6-4.4,4.9-7.9,11.2-7.9c5.7,0,10,2.8,12,8.4h0.2c1.5-4.6,6.1-8.4,12.8-8.4
		c8.1,0,12.8,5.9,12.8,16.3v26.3h-10.2V37.4c0-6-2.2-8.9-6.7-8.9c-4,0-7.7,2.2-7.7,6.7v27.5h-10.2V37.4c0-6-2.2-8.9-6.7-8.9
		c-3.9,0-7.7,2.2-7.7,6.7v27.5H104.6z"/>
	<path class="st0" d="M200.1,55.7h-0.4c-1.4,4.1-4.8,7.9-11.6,7.9c-8.5,0-13.3-5.9-13.3-16.3V21H185v25.3c0,5.7,2.2,8.8,7,8.8
		c4.1,0,8.1-2.2,8.1-6.6V21h10.2v41.6h-10.2V55.7z"/>
	<path class="st0" d="M219.3,41.8c0-13.3,6.9-21.7,19.2-21.7c8.4,0,13.9,4,16.3,10.5l-8.4,3.7c-1-3.5-3.6-6.1-8-6.1
		c-5.7,0-8.5,4-8.5,9.8v7.6c0,5.8,2.9,9.7,8.5,9.7c4.9,0,7.3-2.8,8.8-6.5l7.8,3.7c-2.7,7.3-8.5,11-16.6,11
		C226.3,63.6,219.3,55.1,219.3,41.8z"/>
	<path class="st0" d="M262.8,3.7H273v35.5h0.4l5.5-7.5l9.3-10.7h11.6l-14.3,16.1l15.9,25.5h-12.1L278.5,44l-5.5,6v12.7h-10.2V3.7z"
		/>
	<path class="st0" d="M317.6,62.6c-6.9,0-10.2-3.7-10.2-10V3.7h10.2v50.8h5.5v8.1H317.6z"/>
</g>
<text transform="matrix(1 0 0 1 326.9727 89.6396)" class="st0" style="font-family:'IBMPlexSans-SemiBold'; font-size:79.7023px;"> </text>
<g>
	<path class="st0" d="M27.5,98.7v49.7h-6.7V98.7H3.1v-5.9h42.1v5.9H27.5z"/>
	<path class="st0" d="M53.6,94.1v-1c0-2.2,1.2-3.6,3.9-3.6c2.7,0,3.9,1.4,3.9,3.6v1c0,2.2-1.2,3.6-3.9,3.6
		C54.8,97.7,53.6,96.3,53.6,94.1z M54.4,107.4h6.4v41.1h-6.4V107.4z"/>
	<path class="st0" d="M73.6,148.5v-41.1h6.4v6.7h0.3c2-4.6,5.5-7.7,11.6-7.7c8.4,0,13.8,5.7,13.8,15.7v26.4h-6.4v-25.3
		c0-7.3-3.2-11.1-9.3-11.1c-5.1,0-10,2.6-10,7.8v28.5H73.6z"/>
	<path class="st0" d="M127,148.5c-4.4,0-6.8-2.8-6.8-6.8v-28.8h-6.8v-5.6h3.8c2.7,0,3.6-1,3.6-3.7V96h5.7v11.4h9v5.6h-9v30h8.4v5.6
		H127z"/>
	<path class="st0" d="M141.6,127.9c0-13.1,7.3-21.5,18.5-21.5c11,0,17.8,8.4,17.8,20.1v3h-29.6v1.9c0,7.1,4.5,12.4,12.2,12.4
		c5.2,0,9.2-2.6,11.3-7.1l4.5,3.3c-2.6,5.6-8.5,9.4-16.3,9.4C149,149.4,141.6,141,141.6,127.9z M148.3,124.2v0.6H171v-0.9
		c0-7.3-4.4-12.1-10.9-12.1C153.2,111.7,148.3,117,148.3,124.2z"/>
</g>
</svg>
