<?xml version="1.0" standalone="no"?>
<!DOCTYPE svg PUBLIC "-//W3C//DTD SVG 20010904//EN"
 "http://www.w3.org/TR/2001/REC-SVG-20010904/DTD/svg10.dtd">
<svg version="1.0" xmlns="http://www.w3.org/2000/svg"
 width="1000.000000pt" height="1000.000000pt" viewBox="0 0 1000.000000 1000.000000"
 preserveAspectRatio="xMidYMid meet">
<metadata>
Created by potrace 1.11, written by Peter Selinger 2001-2013
</metadata>
<g transform="translate(0.000000,1000.000000) scale(0.100000,-0.100000)"
fill="#000000" stroke="none">
<path d="M2380 4970 l0 -3490 760 0 760 0 0 1260 0 1260 953 1 c523 1 968 2
987 3 54 4 192 18 217 22 13 2 35 6 51 9 15 3 51 10 79 15 135 23 339 93 497
170 106 52 312 183 376 240 251 224 405 431 533 721 77 174 152 432 172 594 4
28 8 61 10 75 27 163 27 616 1 770 -3 14 -7 39 -9 55 -53 345 -170 656 -349
925 -221 331 -549 586 -932 725 -89 32 -215 69 -276 80 -14 3 -36 7 -50 10
-14 3 -54 10 -90 15 -36 6 -83 13 -105 17 -22 4 -838 8 -1812 10 l-1773 4 0
-3491z m3313 2157 c240 -63 381 -163 461 -328 69 -142 71 -161 71 -569 0 -351
-1 -368 -23 -445 -71 -245 -221 -377 -509 -452 -16 -4 -425 -8 -910 -10 l-883
-4 0 911 0 911 883 -4 c485 -1 894 -6 910 -10z"/>
</g>
</svg>
